/* XPM */
static char *result[] = {
/* columns rows colors chars-per-pixel */
"20 20 2 1 ",
"  c #030301",
". c #040301",
/* pixels */
"........            ",
"........            ",
"........            ",
"........            ",
"........            ",
"........            ",
"........            ",
"........            ",
"........            ",
"........            ",
"........            ",
"........            ",
"........            ",
"........            ",
"........            ",
"........            ",
"........            ",
"........            ",
"........            ",
"........            "
};
