/* XPM */
static char *cd4d5b4e56d44cdcb14ca9f2be2422c0coenatHc4tDnDKMB[] = {
/* columns rows colors chars-per-pixel */
"16 16 2 1 ",
"  c white",
". c black",
/* pixels */
"                ",
" .............. ",
" .............. ",
" .............. ",
" .............. ",
" .............. ",
" .............. ",
" .............. ",
" .............. ",
" .............. ",
" .............. ",
" .............. ",
" .............. ",
" .............. ",
" .............. ",
"                "
};
