/* XPM */
static char *result[] = {
/* columns rows colors chars-per-pixel */
"7 7 2 1 ",
"  c #0000DEDEFFFF",
". c None",
/* pixels */
"... ...",
".     .",
".     .",
"       ",
".     .",
".     .",
"... ..."
};
