/* XPM */
static char *result[] = {
/* columns rows colors chars-per-pixel */
"20 20 40 1 ",
"  c yellow",
". c #FFFE00",
"X c #FFCB00",
"o c #FF6F00",
"O c #FF3100",
"+ c #FF1800",
"@ c #FF1600",
"# c #FF2B00",
"$ c #FF6100",
"% c #FFBC00",
"& c #FFFD00",
"* c #FFCA00",
"= c #FF3500",
"- c #FF0100",
"; c red",
": c #FF2400",
"> c #FFAF00",
", c #FFFA00",
"< c #FF9200",
"1 c #FF0700",
"2 c #FF0200",
"3 c #FF7500",
"4 c #FFF300",
"5 c #FF0500",
"6 c #FF7000",
"7 c #FFA100",
"8 c #FF1700",
"9 c #FFF800",
"0 c #FF9F00",
"q c #FF4000",
"w c #FF0D00",
"e c #FF0800",
"r c DarkOrange",
"t c #FFF000",
"y c #FFB000",
"u c #FF8500",
"i c #FF5400",
"p c #FFFB00",
"a c #FFE800",
"s c #FF8D00",
/* pixels */
"     .XoO+@#$%&     ",
"    *=-;;;;;;;:>    ",
"  ,<1;;;;;;;;;;234  ",
"  <5;;;;;;;;;;;;;6. ",
" *1;;;;;;;;;;;;;;27 ",
".=;;;;;;;;;;;;;;;;89",
"X-;;;;;;;;;;;;;;;;;0",
"o;;;;;;;;;;;;;;;;;;q",
"O;;;;;;;;;;;;;;;;;;w",
"+;;;;;;;;;;;;;;;;;;;",
"@;;;;;;;;;;;;;;;;;;;",
"#;;;;;;;;;;;;;;;;;;e",
"$;;;;;;;;;;;;;;;;;;=",
"%;;;;;;;;;;;;;;;;;;r",
"&:;;;;;;;;;;;;;;;;wt",
" y2;;;;;;;;;;;;;;;u ",
"  3;;;;;;;;;;;;;;ip ",
"  462;;;;;;;;;;;ia  ",
"   .78;;;;;;;;wup   ",
"     90qw;;e=st     "
};
