/* XPM */
static char *result[] = {
/* columns rows colors chars-per-pixel */
"20 20 40 1 ",
"  c gray1",
". c #0B0303",
"X c #530202",
"o c #9F0101",
"O c #D00100",
"+ c #E70000",
"@ c #E60000",
"# c #D00101",
"$ c #9E0101",
"% c #530201",
"& c #0B0402",
"* c #050402",
"= c #060503",
"- c #380202",
"; c #D70101",
": c red",
"> c #D70100",
", c #3A0302",
"< c #090303",
"1 c #800202",
"2 c #F40000",
"3 c #F50000",
"4 c #800201",
"5 c #0B0403",
"6 c #040303",
"7 c #800102",
"8 c #FD0000",
"9 c #040402",
"0 c #040404",
"q c #390303",
"w c #390302",
"e c #9E0202",
"r c #9F0201",
"t c #540301",
"y c #0C0402",
"u c #7F0202",
"i c #040301",
"p c #050304",
"a c #050404",
"s c #0A0303",
/* pixels */
"     .XoO+@#$%&**==*",
"    -;::::::::>,**=*",
"  <12::::::::::345**",
" 678::::::::::::8199",
"0q3::::::::::::::2w9",
".;::::::::::::::::>&",
"X::::::::::::::::::%",
"e::::::::::::::::::$",
"#::::::::::::::::::O",
"+::::::::::::::::::+",
"+::::::::::::::::::+",
"O::::::::::::::::::O",
"r::::::::::::::::::r",
"t::::::::::::::::::t",
"y>::::::::::::::::>y",
"*w2::::::::::::::2w*",
"**48::::::::::::84**",
"**&42::::::::::2u<i*",
"****q;::::::::>- 6i*",
"pa0  sX$#@@#$%y*****"
};
