/* XPM */
static char *result[] = {
/* columns rows colors chars-per-pixel */
"20 20 6 1 ",
"  c #040301",
". c #030301",
"X c #100301",
"o c #7A0201",
"O c #EF0000",
"+ c #340201",
/* pixels */
"        ............",
"        ............",
"        ............",
"        ............",
"        ............",
"        ............",
"        ............",
"        ............",
"        . X.........",
"        .oOX........",
"        .+o ........",
"        ............",
"        ............",
"        ............",
"        ............",
"        ............",
"        ............",
"        ............",
"        ............",
"        ............"
};
