/* XPM */
static char *result[] = {
/* columns rows colors chars-per-pixel */
"20 20 14 1 ",
"  c #040301",
". c #030301",
"X c #0D0301",
"o c #410201",
"O c #6F0201",
"+ c #0C0301",
"@ c #170301",
"# c #950200",
"$ c #F70000",
"% c #FE0000",
"& c #160301",
"* c #FA0000",
"= c red",
"- c #420201",
/* pixels */
"        ............",
"        ............",
"        ............",
"        ............",
"        ............",
"       XoOOo+.......",
"      @#$%%$#&......",
"     X#*====*#+.....",
"     -$======$o.....",
"     O%======%O.....",
"     O%======%O.....",
"     -$======$o.....",
"     X#*====*#+.....",
"      @#$%%$#&......",
"       XoOOo+.......",
"        ............",
"        ............",
"        ............",
"        ............",
"        ............"
};
