/* XPM */
static char *_d5ed5533249482683c722fe86795feagk1sLuXdCkc27sNe[] = {
/* columns rows colors chars-per-pixel */
"16 16 7 1 ",
"  c None",
". c #EA4242",
"X c #EB4242",
"o c #EB4343",
"O c #EC4343",
"+ c #EA4444",
"@ c #EB4444",
/* pixels */
"     @ooooo     ",
"   +ooooooooO   ",
"  ooooooooooo+  ",
" +ooooooooooooO ",
" oooooooooooooo ",
"oooooooooooooooo",
"oooooooooooooooo",
"oooooooooooooooo",
"oooooooooooooooo",
"oooooooooooooooo",
"oooooooooooooooo",
" oooooooooooooo ",
" Oooooooooooooo ",
"  +ooooooooooo  ",
"   Oooooooooo   ",
"     oooooo     "
};
